#N canvas 676 74 568 548 10;
#X obj 40 280 +;
#X msg 40 229 0.1;
#X floatatom 283 290 5 0 1 0 - - -;
#X obj 415 280 +;
#X msg 415 233 -0.1;
#X obj 40 253 spigot;
#X obj 415 257 spigot;
#X obj 164 196 tgl 15 0 empty empty empty 17 7 0 10 -262144 -1 -1 1
1;
#X obj 372 197 tgl 15 0 empty empty empty 17 7 0 10 -262144 -1 -1 1
1;
#X obj 342 317 > 0.2;
#X text 483 187 Volume -;
#X text 38 180 Volume +;
#X obj 175 317 < 1;
#X obj 264 496 dac~;
#X obj 268 462 *~;
#X text 242 515 AUDIO OUTPUT;
#X obj 283 161 loadbang;
#X msg 283 197 0.4;
#X obj 221 430 inlet~;
#X obj 37 29 dumpOSC 8006;
#X obj 37 56 route /audio_out/volume/up /audio_out/volume/down;
#X text 290 270 Now volume;
#X text 38 138 * Volume Setting *;
#X text 46 416 * Audio Output *;
#X text 34 3 * Receive message from PWS Manager *;
#X obj 175 344 s volume_maximum;
#X obj 342 343 s volume_minimum;
#X text 281 141 Default Setting;
#X obj 37 83 s send_bang_vol+;
#X obj 182 83 s send_bang_vol-;
#X obj 415 208 r send_bang_vol-;
#X obj 40 203 r send_bang_vol+;
#X obj 164 166 r volume_maximum;
#X obj 372 168 r volume_minimum;
#X connect 0 0 2 0;
#X connect 1 0 5 0;
#X connect 2 0 0 1;
#X connect 2 0 3 1;
#X connect 2 0 9 0;
#X connect 2 0 12 0;
#X connect 2 0 14 1;
#X connect 3 0 2 0;
#X connect 4 0 6 0;
#X connect 5 0 0 0;
#X connect 6 0 3 0;
#X connect 7 0 5 1;
#X connect 8 0 6 1;
#X connect 9 0 26 0;
#X connect 12 0 25 0;
#X connect 14 0 13 0;
#X connect 14 0 13 1;
#X connect 16 0 7 0;
#X connect 16 0 8 0;
#X connect 16 0 17 0;
#X connect 17 0 2 0;
#X connect 18 0 14 0;
#X connect 19 0 20 0;
#X connect 20 0 28 0;
#X connect 20 1 29 0;
#X connect 30 0 4 0;
#X connect 31 0 1 0;
#X connect 32 0 7 0;
#X connect 33 0 8 0;
