#N canvas 85 35 792 624 10;
#X obj 541 194 delwrite~ delay1 1000;
#X floatatom 542 220 5 0 0 0 - - -;
#X obj 317 141 spigot~;
#X obj 541 140 spigot~;
#X msg 336 47 0;
#X msg 427 47 1;
#X msg 561 48 0;
#X msg 648 48 1;
#X obj 54 -237 f 0;
#X obj 54 -213 + 1;
#X floatatom 54 -190 5 0 0 0 - - -;
#X obj 106 -189 select 3;
#X msg 134 -216 0;
#X obj 168 137 spigot~;
#X obj 356 74 tgl 15 0 empty empty empty 17 7 0 10 -262144 -1 -1 1
1;
#X obj 580 77 tgl 15 0 empty empty empty 17 7 0 10 -262144 -1 -1 1
1;
#X msg 126 47 0;
#X msg 220 47 1;
#X obj 207 74 tgl 15 0 empty empty empty 17 7 0 10 -262144 -1 -1 0
1;
#X floatatom 674 252 5 0 0 0 - - -;
#X obj 540 168 +~;
#X obj 54 -140 select 1;
#X obj 147 -139 select 2;
#X obj 241 -139 select 3;
#X text 380 74 Distortion;
#X text 229 73 Nomal;
#X text 604 76 Reverb;
#X obj 638 278 *~ 0.5;
#X obj 54 -289 dumpOSC 8005;
#X obj 484 88 inlet~;
#X obj 470 -55 loadbang;
#X obj 317 281 outlet~;
#X obj 54 -262 route /effector/effect/toggle;
#X text 44 -313 * Receive message from PWS Manager *;
#X text 175 -202 Counter: from 1 to 3;
#X obj 54 -95 s send_bang1;
#X obj 147 -95 s send_bang2;
#X obj 241 -96 s send_bang3;
#X obj 220 -3 r send_bang1;
#X obj 231 20 r send_bang2;
#X obj 126 21 r send_bang3;
#X obj 336 21 r send_bang1;
#X obj 427 -2 r send_bang2;
#X obj 440 21 r send_bang3;
#X obj 648 0 r send_bang1;
#X obj 659 23 r send_bang3;
#X obj 561 24 r send_bang2;
#X text 48 -32 * Effect Setting *;
#X text 454 -77 Default Setting;
#X obj 542 247 delread~ delay1 120;
#X obj 316 179 clip~ -0.7 0.7;
#X connect 1 0 49 0;
#X connect 2 0 50 0;
#X connect 3 0 20 0;
#X connect 3 0 31 0;
#X connect 4 0 14 0;
#X connect 5 0 14 0;
#X connect 6 0 15 0;
#X connect 7 0 15 0;
#X connect 8 0 9 0;
#X connect 9 0 10 0;
#X connect 10 0 11 0;
#X connect 10 0 21 0;
#X connect 10 0 22 0;
#X connect 10 0 23 0;
#X connect 11 0 12 0;
#X connect 11 1 8 1;
#X connect 12 0 8 1;
#X connect 13 0 31 0;
#X connect 14 0 2 1;
#X connect 15 0 3 1;
#X connect 16 0 18 0;
#X connect 17 0 18 0;
#X connect 18 0 13 1;
#X connect 19 0 27 1;
#X connect 20 0 0 0;
#X connect 21 0 35 0;
#X connect 22 0 36 0;
#X connect 23 0 37 0;
#X connect 27 0 20 1;
#X connect 28 0 32 0;
#X connect 29 0 13 0;
#X connect 29 0 3 0;
#X connect 29 0 2 0;
#X connect 30 0 14 0;
#X connect 30 0 15 0;
#X connect 32 0 8 0;
#X connect 38 0 17 0;
#X connect 39 0 17 0;
#X connect 40 0 16 0;
#X connect 41 0 4 0;
#X connect 42 0 5 0;
#X connect 43 0 5 0;
#X connect 44 0 7 0;
#X connect 45 0 7 0;
#X connect 46 0 6 0;
#X connect 49 0 27 0;
#X connect 49 0 31 0;
#X connect 50 0 31 0;
