#N canvas 285 231 437 273 10;
#X floatatom 73 146 5 0 0 0 - - -;
#X msg 106 81 disconnect;
#X floatatom 112 148 5 0 0 0 - - -;
#X obj 73 118 sendOSC;
#X msg 73 17 connect localhost 8001;
#X obj 73 -14 loadbang;
#X msg 103 50 send /pd_initializer/initialize/finished 0;
#X obj 257 15 delay 100;
#X text 70 -42 * Send message to PWS Manager *;
#X connect 1 0 3 0;
#X connect 3 0 0 0;
#X connect 3 1 2 0;
#X connect 4 0 3 0;
#X connect 5 0 4 0;
#X connect 5 0 7 0;
#X connect 6 0 3 0;
#X connect 7 0 6 0;
