#N canvas 289 186 663 459 10;
#X msg 37 -19 start;
#X obj 110 124 readsf~;
#X obj 37 -45 del 100;
#X text 134 40 open the wav file;
#X obj 36 -194 dumpOSC 8003;
#X floatatom 406 150 5 0 0 0 - - -;
#X msg 439 86 disconnect;
#X floatatom 445 149 5 0 0 0 - - -;
#X obj 406 123 sendOSC;
#X msg 406 -40 connect localhost 8001;
#X obj 406 -71 loadbang;
#X obj 20 23 bng 15 250 50 0 empty empty empty 17 7 0 10 -262144 -1
-1;
#X obj 169 -24 bng 15 250 50 0 empty empty empty 17 7 0 10 -262144
-1 -1;
#X obj 110 177 outlet~;
#X obj 36 -167 route /player/playback/start /player/playback/stop;
#X msg 424 51 send /player/playback/stopped 0;
#X text 34 -222 * Receive message from PWS Manager *;
#X msg 198 -48 stop;
#X text 403 -96 * Send message to PWS Manager *;
#X text 37 -99 * Player Setting *;
#X obj 36 -141 s send_bang_playstart;
#X obj 37 -72 r send_bang_playstart;
#X obj 111 19 r send_bang_playstart;
#X obj 184 -141 s send_bang_playstop;
#X obj 198 -72 r send_bang_playstop;
#X obj 149 149 s send_bang_playstopped;
#X obj 439 23 r send_bang_playstopped;
#X obj 198 -22 s playstop;
#X obj 126 89 r playstop;
#X obj 424 -4 r playstop;
#X obj 189 131 bng 15 250 50 0 empty empty empty 17 7 0 10 -262144
-1 -1;
#X msg 111 58 open /home/pi/pws/last_play.wav;
#X connect 0 0 1 0;
#X connect 0 0 11 0;
#X connect 1 0 13 0;
#X connect 1 1 25 0;
#X connect 1 1 30 0;
#X connect 2 0 0 0;
#X connect 4 0 14 0;
#X connect 6 0 8 0;
#X connect 8 0 5 0;
#X connect 8 1 7 0;
#X connect 9 0 8 0;
#X connect 10 0 9 0;
#X connect 14 0 20 0;
#X connect 14 1 23 0;
#X connect 15 0 8 0;
#X connect 17 0 12 0;
#X connect 17 0 27 0;
#X connect 21 0 2 0;
#X connect 22 0 31 0;
#X connect 24 0 17 0;
#X connect 26 0 15 0;
#X connect 28 0 1 0;
#X connect 29 0 15 0;
#X connect 31 0 1 0;
