#N canvas 1759 262 1083 630 10;
#X msg 411 -55 start;
#X msg 812 -57 stop;
#X obj 140 261 writesf~;
#X obj 213 -80 time;
#X obj 213 -55 * 10000;
#X obj 267 -55 * 100;
#X obj 235 -30 +;
#X obj 411 -79 del 100;
#X obj 308 222 inlet~;
#X obj 235 -7 +;
#X obj 33 -26 +;
#X obj 44 -80 date;
#X msg 140 88 28 201607 112239;
#X obj 9 -52 * 100;
#X msg 235 19 add2 \$1;
#X msg 94 0 set \$1;
#X msg 33 0 add2 \$1;
#X obj 422 255 writesf~;
#X obj 18 -264 dumpOSC 8002;
#X obj 18 -237 route /recorder/record/start /recorder/record/stop;
#X obj 783 -29 bng 15 250 50 0 empty empty empty 17 7 0 10 -262144
-1 -1;
#X floatatom 665 246 5 0 0 0 - - -;
#X msg 698 180 disconnect;
#X floatatom 704 246 5 0 0 0 - - -;
#X obj 665 217 sendOSC;
#X msg 665 116 connect localhost 8001;
#X msg 523 84 28 201607 112239;
#X obj 665 85 loadbang;
#X obj 308 306 outlet~;
#X text 14 -287 * Receive message from PWS Manager *;
#X msg 683 145 send /recorder/record/stopped 0 /home/pi/pws/\$2\$1_\$3.wav
;
#X text 12 -103 Get system date;
#X text 185 -102 Get system time;
#X text 17 -152 * Make a file name *;
#X text 424 155 Open the wav file;
#X text 146 157 Open the wav file for upload;
#X text 255 87 make a file name;
#X text 409 -148 * Recorder Setting *;
#X obj 18 -209 s send_bang_recordstart;
#X obj 166 -210 s send_bang_recordstop;
#X obj 140 -128 r send_bang_recordstart;
#X obj 411 -104 r send_bang_recordstart;
#X obj 812 -103 r send_bang_recordstop;
#X obj 411 -30 s recordstart;
#X obj 156 207 r recordstart;
#X obj 434 204 r recordstart;
#X obj 812 -29 s recordstop;
#X obj 445 225 r recordstop;
#X obj 163 228 r recordstop;
#X msg 140 175 open /home/pi/pws/\$2\$1_\$3;
#X msg 422 174 open /home/pi/pws/last_play;
#X obj 584 -81 bang;
#X obj 584 -7 spigot;
#X obj 694 -56 bang;
#X msg 694 -30 0;
#X msg 543 -33 1;
#X obj 584 -106 r recordstart;
#X obj 584 17 s send_bang_recordstop;
#X obj 694 -80 r recordstop;
#X obj 523 57 r recordstop;
#X text 585 -38 limit:1500000ms;
#X text 583 -125 Setting of maximum record time;
#X obj 383 -27 bng 15 250 50 0 empty empty empty 17 7 0 10 -262144
-1 -1;
#X text 661 56 * Send message to PWS Manager *;
#X obj 584 -55 delay 1.5e+006;
#X connect 0 0 43 0;
#X connect 0 0 62 0;
#X connect 1 0 20 0;
#X connect 1 0 46 0;
#X connect 3 0 4 0;
#X connect 3 1 5 0;
#X connect 3 2 9 1;
#X connect 4 0 6 0;
#X connect 5 0 6 1;
#X connect 6 0 9 0;
#X connect 7 0 0 0;
#X connect 8 0 2 0;
#X connect 8 0 17 0;
#X connect 8 0 28 0;
#X connect 9 0 14 0;
#X connect 10 0 16 0;
#X connect 11 0 13 0;
#X connect 11 1 10 1;
#X connect 11 2 15 0;
#X connect 12 0 50 0;
#X connect 12 0 49 0;
#X connect 13 0 10 0;
#X connect 14 0 12 0;
#X connect 14 0 26 0;
#X connect 15 0 12 0;
#X connect 15 0 26 0;
#X connect 16 0 12 0;
#X connect 16 0 26 0;
#X connect 18 0 19 0;
#X connect 19 0 38 0;
#X connect 19 1 39 0;
#X connect 22 0 24 0;
#X connect 24 0 21 0;
#X connect 24 1 23 0;
#X connect 25 0 24 0;
#X connect 26 0 30 0;
#X connect 27 0 25 0;
#X connect 30 0 24 0;
#X connect 40 0 11 0;
#X connect 40 0 3 0;
#X connect 40 0 12 0;
#X connect 41 0 7 0;
#X connect 42 0 1 0;
#X connect 44 0 2 0;
#X connect 45 0 17 0;
#X connect 47 0 17 0;
#X connect 48 0 2 0;
#X connect 49 0 2 0;
#X connect 50 0 17 0;
#X connect 51 0 55 0;
#X connect 51 0 64 0;
#X connect 52 0 57 0;
#X connect 53 0 54 0;
#X connect 54 0 52 1;
#X connect 55 0 52 1;
#X connect 56 0 51 0;
#X connect 58 0 53 0;
#X connect 59 0 26 0;
#X connect 64 0 52 0;
