#N canvas 504 201 653 392 10;
#X obj -132 24 spigot~;
#X obj -132 -2 *~ 0.8;
#X obj -64 -54 0;
#X obj 78 -55 1;
#X obj -135 -227 dumpOSC 8004;
#X obj 254 -80 loadbang;
#X floatatom 254 82 5 0 0 0 - - -;
#X msg 287 17 disconnect;
#X floatatom 293 83 5 0 0 0 - - -;
#X obj 254 54 sendOSC;
#X msg 254 -47 connect localhost 8001;
#X obj -131 50 outlet~;
#X obj -135 -200 route /tuner/tune/start /tuner/tune/stop;
#X msg 271 -18 send /tuner/tune/stopped 0;
#X obj -132 -30 osc~ 524;
#X text -136 -254 * Receive message from PWS Manager *;
#X text -74 -33 Sin 524Hz for Tuning;
#X text 253 -104 * Send message to PWS Manager *;
#X text -131 -107 * Tuner Setting *;
#X obj -135 -152 s send_bang_tunestart;
#X obj -64 -80 r send_bang_tunestart;
#X obj -17 -176 s send_bang_tunestop;
#X obj 78 -80 r send_bang_tunestop;
#X obj -20 -53 bng 15 250 50 0 empty empty empty 17 7 0 10 -262144
-1 -1;
#X obj 127 -53 bng 15 250 50 0 empty empty empty 17 7 0 10 -262144
-1 -1;
#X connect 0 0 11 0;
#X connect 1 0 0 0;
#X connect 2 0 0 1;
#X connect 3 0 0 1;
#X connect 3 0 13 0;
#X connect 4 0 12 0;
#X connect 5 0 3 0;
#X connect 5 0 10 0;
#X connect 7 0 9 0;
#X connect 9 0 6 0;
#X connect 9 1 8 0;
#X connect 10 0 9 0;
#X connect 12 0 19 0;
#X connect 12 1 21 0;
#X connect 13 0 9 0;
#X connect 14 0 1 0;
#X connect 20 0 2 0;
#X connect 20 0 23 0;
#X connect 22 0 3 0;
#X connect 22 0 24 0;
