#N canvas 257 134 1072 493 10;
#X floatatom 139 367 5 0 0 0 - - -;
#X msg 56 287 disconnect;
#X floatatom 191 367 5 0 0 0 - - -;
#X obj 141 322 sendOSC;
#X msg 158 17 send /recorder/record/start;
#X floatatom 290 369 5 0 0 0 - - -;
#X floatatom 342 369 5 0 0 0 - - -;
#X obj 292 324 sendOSC;
#X msg 292 89 connect localhost 8003;
#X msg 214 294 disconnect;
#X floatatom 449 365 5 0 0 0 - - -;
#X floatatom 501 365 5 0 0 0 - - -;
#X obj 451 320 sendOSC;
#X msg 373 290 disconnect;
#X msg 448 183 connect localhost 8004;
#X floatatom 667 371 5 0 0 0 - - -;
#X floatatom 719 371 5 0 0 0 - - -;
#X obj 669 326 sendOSC;
#X msg 591 296 disconnect;
#X floatatom 823 366 5 0 0 0 - - -;
#X floatatom 875 366 5 0 0 0 - - -;
#X obj 825 321 sendOSC;
#X msg 747 291 disconnect;
#X msg 668 49 connect localhost 8005;
#X msg 822 184 connect localhost 8006;
#X msg 140 -12 connect localhost 8002;
#X msg 178 44 send /recorder/record/stop;
#X msg 683 78 send /effector/effect/toggle;
#X msg 308 118 send /player/playback/start;
#X msg 329 145 send /player/playback/stop;
#X msg 463 212 send /tuner/tune/start;
#X msg 485 239 send /tuner/tune/stop;
#X msg 837 213 send /audio_out/volume/up;
#X msg 859 240 send /audio_out/volume/down;
#X obj 36 -3 dumpOSC 8001;
#X obj 36 24 print;
#X connect 1 0 3 0;
#X connect 3 0 0 0;
#X connect 3 1 2 0;
#X connect 4 0 3 0;
#X connect 7 0 5 0;
#X connect 7 1 6 0;
#X connect 8 0 7 0;
#X connect 9 0 7 0;
#X connect 12 0 10 0;
#X connect 12 1 11 0;
#X connect 13 0 12 0;
#X connect 14 0 12 0;
#X connect 17 0 15 0;
#X connect 17 1 16 0;
#X connect 18 0 17 0;
#X connect 21 0 19 0;
#X connect 21 1 20 0;
#X connect 22 0 21 0;
#X connect 23 0 17 0;
#X connect 24 0 21 0;
#X connect 25 0 3 0;
#X connect 26 0 3 0;
#X connect 27 0 17 0;
#X connect 28 0 7 0;
#X connect 29 0 7 0;
#X connect 30 0 12 0;
#X connect 31 0 12 0;
#X connect 32 0 21 0;
#X connect 33 0 21 0;
#X connect 34 0 35 0;
